<svg width="480" height="480" viewBox="0 0 480 480" fill="none" xmlns="http://www.w3.org/2000/svg">
  <defs>
    <linearGradient id="bg" x1="40" y1="40" x2="440" y2="440" gradientUnits="userSpaceOnUse">
      <stop stop-color="#D9E7EF"/>
      <stop offset="1" stop-color="#F5F9FC"/>
    </linearGradient>
    <linearGradient id="shirt" x1="120" y1="260" x2="360" y2="420" gradientUnits="userSpaceOnUse">
      <stop stop-color="#2B5367"/>
      <stop offset="1" stop-color="#44697A"/>
    </linearGradient>
  </defs>
  <rect x="20" y="20" width="440" height="440" rx="220" fill="url(#bg)"/>
  <circle cx="240" cy="195" r="85" fill="#F0D2BC"/>
  <path d="M155 346C166.5 289.2 203.1 267 240 267C276.9 267 313.5 289.2 325 346V390H155V346Z" fill="url(#shirt)"/>
  <path d="M176 173C184.5 132 215 115 240 115C270 115 301 134.5 307 173C290 156.5 275 148 240 148C209 148 190 159 176 173Z" fill="#2F4F60"/>
</svg>
